<svg id="svg" fill="#000000" stroke="#000000" width="200px" height="200px" version="1.1" viewBox="144 144 512 512" xmlns="http://www.w3.org/2000/svg">
    <g id="IconSvg_bgCarrier" stroke-width="0"></g>
    <g id="IconSvg_tracerCarrier" stroke-linecap="round" stroke-linejoin="round" stroke="#CCCCCC"></g>
     <g id="IconSvg_iconCarrier">
      <g xmlns="http://www.w3.org/2000/svg">
  <path d="m394.42 504.42c-54.504 0-98.844-44.34-98.844-98.844s44.34-98.844 98.844-98.844c54.496 0 98.836 44.34 98.836 98.844s-44.34 98.844-98.836 98.844zm0-182.22c-45.977 0-83.379 37.406-83.379 83.387 0 45.977 37.402 83.379 83.379 83.379 45.977 0 83.379-37.406 83.379-83.379 0-45.984-37.402-83.387-83.379-83.387z"></path>
  <path d="m386.69 181.01h15.457v79.562h-15.457z"></path>
  <path d="m394.42 268.3c-4.2656 0-7.7266-3.4609-7.7266-7.7266l-0.003906-79.562c0-4.2656 3.457-7.7266 7.7305-7.7266 4.2656 0 7.7266 3.4609 7.7266 7.7266v79.562c0 4.2656-3.4609 7.7266-7.7266 7.7266z"></path>
  <path d="m394.42 626.71c-4.2656 0-7.7266-3.4609-7.7266-7.7266l-0.003906-79.562c0-4.2656 3.4609-7.7266 7.7266-7.7266 4.2656 0 7.7266 3.4609 7.7266 7.7266v79.562c0.003906 4.2656-3.457 7.7266-7.7227 7.7266z"></path>
  <path d="m496.95 310.77c-1.9805 0-3.9531-0.75391-5.4648-2.2617-3.0195-3.0195-3.0195-7.9102 0-10.926l56.254-56.262c3.0195-3.0195 7.9102-3.0195 10.926 0 3.0195 3.0195 3.0195 7.9102 0 10.926l-56.25 56.262c-1.5117 1.5078-3.4883 2.2617-5.4648 2.2617z"></path>
  <path d="m243.52 564.21c-1.9805 0-3.9531-0.75391-5.4648-2.2617-3.0195-3.0195-3.0195-7.9102 0-10.926l56.262-56.254c3.0195-3.0195 7.9102-3.0195 10.926 0 3.0195 3.0195 3.0195 7.9102 0 10.926l-56.262 56.25c-1.5039 1.5117-3.4844 2.2656-5.4609 2.2656z"></path>
  <path d="m618.98 413.31h-79.555c-4.2656 0-7.7266-3.4609-7.7266-7.7266 0-4.2656 3.4609-7.7266 7.7266-7.7266h79.555c4.2656 0 7.7266 3.4609 7.7266 7.7266 0 4.2656-3.4609 7.7266-7.7266 7.7266z"></path>
  <path d="m260.57 413.31h-79.562c-4.2656 0-7.7266-3.4609-7.7266-7.7266 0-4.2656 3.4609-7.7266 7.7266-7.7266h79.562c4.2656 0 7.7266 3.4609 7.7266 7.7266 0.007813 4.2656-3.4531 7.7266-7.7266 7.7266z"></path>
  <path d="m553.21 572.11c-1.9805 0-3.9531-0.75391-5.4648-2.2617l-56.258-56.262c-3.0195-3.0195-3.0195-7.9102 0-10.926 3.0195-3.0195 7.9102-3.0195 10.926 0l56.254 56.262c3.0195 3.0195 3.0195 7.9102 0 10.926-1.5039 1.5117-3.4766 2.2617-5.457 2.2617z"></path>
  <path d="m299.78 318.67c-1.9805 0-3.9531-0.75391-5.4648-2.2617l-56.258-56.258c-3.0195-3.0195-3.0195-7.9141 0-10.926 3.0195-3.0195 7.9102-3.0195 10.926 0l56.262 56.262c3.0195 3.0195 3.0195 7.9141 0 10.926-1.5117 1.5039-3.4883 2.2578-5.4648 2.2578z"></path>
 </g>

      </g>
      </svg>